<svg width="41" height="41" viewBox="0 0 41 41" fill="none" xmlns="http://www.w3.org/2000/svg">
<g clip-path="url(#clip0_1_55)">
<path d="M34.6923 0.788467H6.30769C3.2595 0.788467 0.78846 3.25951 0.78846 6.3077V34.6923C0.78846 37.7405 3.2595 40.2116 6.30769 40.2116H34.6923C37.7405 40.2116 40.2116 37.7405 40.2116 34.6923V6.3077C40.2116 3.25951 37.7405 0.788467 34.6923 0.788467Z" stroke="white" stroke-width="1.57692"/>
<path d="M31.5839 11H9.22464C8.74828 11 8.30557 11.1292 7.93674 11.389L20.4045 21.9986L32.8718 11.389C32.5032 11.129 32.0601 11 31.5839 11Z" fill="white" stroke="white" stroke-width="0.394344"/>
<path d="M33.527 11.992L22.9713 20.9535L33.527 29.9149C33.7937 29.5169 34 29.0326 34 28.509V13.398C34 12.8744 33.7937 12.3902 33.527 11.992Z" fill="white" stroke="white" stroke-width="0.394344"/>
<path d="M7.37777 11.992C7.11073 12.39 7 12.8744 7 13.398V28.509C7 29.0323 7.11073 29.5167 7.37777 29.9149L17.8856 20.9535L7.37777 11.992Z" fill="white" stroke="white" stroke-width="0.394344"/>
<path d="M22.301 21.5248L20.67 22.916C20.5925 22.9819 20.4982 23.0149 20.4045 23.0149C20.3106 23.0149 20.2165 22.9819 20.1389 22.916L18.5084 21.5253L7.93717 30.5639C8.30578 30.8243 8.74849 31 9.22485 31H31.5841C32.0603 31 32.5032 30.8243 32.872 30.5639L22.301 21.5248Z" fill="white" stroke="white" stroke-width="0.394344"/>
</g>
<defs>
<clipPath id="clip0_1_55">
<rect width="41" height="41" fill="white"/>
</clipPath>
</defs>
</svg>
